<?xml version="1.0" encoding="utf-8"?>
<!-- Generator: Adobe Illustrator 20.1.0, SVG Export Plug-In . SVG Version: 6.00 Build 0)  -->
<svg version="1.1" id="Layer_1" xmlns="http://www.w3.org/2000/svg" xmlns:xlink="http://www.w3.org/1999/xlink" x="0px" y="0px"
	 viewBox="0 0 204.8 571.3" style="enable-background:new 0 0 204.8 571.3;" xml:space="preserve">
<style type="text/css">
	.st0{fill:#854B3D;}
	.st1{fill:#110A00;}
	.st2{fill:#3B3929;}
	.st3{opacity:0.2;fill:#231F20;enable-background:new    ;}
	.st4{fill:#26292C;}
	.st5{fill:#626336;}
	.st6{fill:#FBC0A2;}
	.st7{fill:#865442;}
	.st8{fill:#864E44;}
	.st9{fill:#823838;}
	.st10{fill:#E39E94;}
	.st11{fill:#6E3A36;}
	.st12{fill:#7A453D;}
	.st13{fill:#CC7E82;}
	.st14{fill:#613000;}
	.st15{fill:#E6E7E8;}
	.st16{fill:#55523E;}
	.st17{fill:#EFEFF0;}
	.st18{fill:#494634;}
	.st19{fill:#6C6C3C;}
	.st20{fill:#929DA3;}
	.st21{clip-path:url(#SVGID_2_);}
	.st22{fill:#3354A5;}
	.st23{fill:#3167B1;}
	.st24{fill:#6786C4;}
	.st25{fill:#4059A8;}
	.st26{fill:#552D8C;}
	.st27{fill:#412200;}
	.st28{fill:#633A03;}
	.st29{fill:#1B1604;}
	.st30{fill:#443B25;}
	.st31{fill:#ABADB0;}
	.st32{fill:#766B0B;}
	.st33{fill:#FDE02E;}
	.st34{opacity:0.36;fill:#231F20;enable-background:new    ;}
</style>
<title>bletchley_lady</title>
<g>
	<path class="st0" d="M76.1,486.2c6.2,0,11.4-2.6,11.7-5.9l9.2-83.5c0.5-5.4-7.7-10-18-10.1h-1.9c-10.4-0.1-19,4.4-18.7,10l5.9,83.5
		C64.5,483.6,69.8,486.3,76.1,486.2L76.1,486.2z"/>
	<polygon class="st0" points="80.9,546.8 81.4,553.3 81.2,560.8 29.5,570.4 44.9,560.2 67,545.6 	"/>
	<path class="st1" d="M81.4,553.3l-0.2,7.5l-51.7,9.6l15.5-10.2c3.2,2.3,5.7,4.3,5.7,4.3L81.4,553.3z"/>
	<path class="st0" d="M76.1,472.9c-6.7,0-12.1,3-11.8,6.5l4.9,69.6c-0.3,2.9,5.4,3.9,10,1.8c0.5-0.2,0.9-0.6,1-1.1l7.7-70.3
		C88.3,475.8,82.9,472.8,76.1,472.9L76.1,472.9z"/>
	<path class="st0" d="M129.9,487c-6.2,0-11.4-2.5-11.7-5.8l-9.5-83.4c-0.5-5.4,7.6-10,18-10.1h1.9c10.4-0.1,19,4.4,18.7,9.9
		l-5.6,83.5C141.5,484.4,136.3,487,129.9,487L129.9,487z"/>
	<polygon class="st0" points="125.2,547.9 124.7,554.3 124.9,561.9 176.7,571.3 161.1,561.1 139,546.6 	"/>
	<path class="st1" d="M124.7,554.3l0.2,7.5l51.7,9.4l-15.5-10.2c-3.2,2.3-5.7,4.3-5.7,4.3L124.7,554.3z"/>
	<path class="st0" d="M129.9,473.7c6.7,0,12.1,2.9,11.8,6.5l-4.7,69.6c0.3,2.9-5.4,3.9-10,1.9c-0.5-0.2-0.9-0.6-1-1.1l-8-70.2
		C117.6,476.8,123,473.7,129.9,473.7L129.9,473.7z"/>
	<path class="st2" d="M76.8,279.5c-9.2,18.8-15.4,39-18.4,59.7c-4.7,33.4-14,98.7-14,98.7s63,10.2,90.7,7.1
		c27.7-3,32.7-7.1,32.7-7.1l-12.2-92.4c0,0-8.9-47-13.3-64.4c-0.3-0.9-0.8-1.7-1.4-2.3C132.5,266.8,128.4,294,76.8,279.5z"/>
	<path class="st3" d="M147.8,321.4l0.3,1.5c1.6,9.1,10.4,58.5,12.7,79.7c2.5,23.5,5,34.7,4.1,33.9c-0.9-0.8-24.9,13.1-93.2,2.6l6-27
		l64-4.8l-1.2-8.6c0,0-36.5,5.6-54.5,4.9l0.7-16.8c0,0,29.5-1.5,34-4.6c4.5-3,20.4-15.1,21-16.6"/>
	<path class="st1" d="M146.6,76.9c-3.8-0.6-2.6-3.4,1.5-6.5c-0.2-0.5-0.5-1.1-0.7-1.6c-0.7-2.2-2-4.1-3.6-5.7c-1-1.5-2-3.1-2.8-4.7
		c0.1,28.5-15.4,50.7-15.4,50.7c4.1,0.7,5.8-9.6,11.9-10.8s7.8-3.3,7.8-3.3C157.1,86.6,150.7,77.6,146.6,76.9z"/>
	<path class="st4" d="M137,56.2c1.2,2.9,3,2.2,3.7,1.7C139.6,56.2,138.3,55,137,56.2L137,56.2z"/>
	<path class="st5" d="M138.7,144.4c-1.6-1.5-3.3-2.9-5.1-4.2c0,0.2,0,0.3,0,0.5c-0.1,10.6-8.8,19.1-19.4,18.9c0,0,0,0,0,0
		c-6.1,0-11.8-2.8-15.5-7.6c-3.7,4.8-9.5,7.6-15.5,7.6c-10.7,0-16.1-4.8-16.1-15.3c0-0.9,6.4-5.6,6.5-6.5c-2.4,1.9-9,0.6-16.8,6.5
		c-16.9,13-11.6,36.7-11.6,62l8.1,21.4l5.6,72.8l1.2,23.7l0,0c-0.3,0.7,0,1.5,0.7,1.8c0.1,0,0.2,0.1,0.4,0.1l85.3-3.2l7.4-4
		l-9.2-27.7l4.6-61.9l7.9-22.9C157.2,181.1,154.5,158.7,138.7,144.4z"/>
	<path class="st6" d="M133.6,140.2c-2.8-2.1-5.9-4-9-5.6c-3.4-1.7-6.9-3.2-10.6-4.2c-4.7-1.4-9.5-2.2-14.4-2.3
		c-0.3,0.4-0.7,0.7-1,1.1c-0.3-0.4-0.6-0.8-1-1.2c-0.2,0-0.5,0-0.7,0c-0.2,0-0.6,0-0.9,0c-4.3,0-8.5,0.5-12.7,1.4
		c-4.9,1.1-8.2,8.2-12.6,10.5c-2,1.1-2.8,4.5-4.4,5.8c-0.1,0.8,0.1,8-2.3,2c-3.9-9.7,8.5,11.8,19.2,11.8c6.1,0.1,11.9-2.8,15.6-7.6
		c3.7,4.8,9.5,7.6,15.5,7.6c10.6,0.1,19.3-8.4,19.4-18.9c0,0,0,0,0,0C133.6,140.5,133.6,140.3,133.6,140.2z"/>
	<path class="st7" d="M121.5,55.2v78.4c0,6.7-5.4,12.1-12.1,12.1c0,0,0,0,0,0H97.6c-6.7,0-12.1-5.4-12.1-12.1V55.2
		c-0.1-0.9,0.4-1.8,1.2-2.2"/>
	<path class="st8" d="M189.7,331.9c0.5,3-4,7.1-6.1,3.3c-0.7-1.3-3.8-3.6-3.8-3.6l-2.5,7.9c0,0,7,6.5,11,6.7c4,0.1,5.7-3.3,6.5-3.6
		c0.8-0.3,3.6-5.5,3.6-5.5v-19.5L189.7,331.9z"/>
	<path class="st8" d="M202.1,316.1l-12.7-13.4c-2.9-3.1-7.5-3.8-11.2-1.8l-2,1.1c-0.6,0.3-1,0.9-1,1.6l0,0c0,0.1,0,0.2,0,0.3
		l-1.9,12.3l-0.5,8.9l-2.8,5.8c-0.6,1.5,0.1,3.2,1.6,3.8c0.1,0,0.1,0,0.2,0.1l0,0c1.1,0.4,2.4,0,3.1-0.9l2.8-3.5
		c2.3-4.7,3.5-3.8,4.4-10.5l1.3,1.7c5.6,7.7,3.4,15.1,6.8,24c0.6,1.6,5.8-1.8,7-3.1l3.8-3.7c0.9-1,1.5-2.2,1.7-3.5l2-5.2
		L202.1,316.1z"/>
	<path class="st8" d="M2.7,316.1l12.7-13.4c2.9-3.1,7.5-3.8,11.2-1.8l2,1.1c0.6,0.3,1,0.9,1,1.6l0,0c0,0.1,0,0.2,0,0.3l1.9,12.3
		l0.5,8.9l2.8,5.8c0.6,1.5-0.1,3.2-1.6,3.8c-0.1,0-0.1,0-0.2,0.1l0,0c-1.1,0.4-2.4,0-3.1-0.9l-2.8-3.5c-2.3-4.7-3.5-3.8-4.4-10.5
		l-1.3,1.7c-5.6,7.7-3.4,15.1-6.8,24c-0.6,1.6-5.8-1.8-7-3.1l-3.8-3.7c-1-0.9-1.6-2.2-1.8-3.5L0,330L2.7,316.1z"/>
	<path class="st5" d="M196.2,281.7C181.1,165.4,148,146,148,146c-13.1-8.1-24,9.1-19.4,13.1c13.8,11.7,39.5,66.5,41.2,125.5
		C170.6,308.5,201.3,321.3,196.2,281.7z"/>
	<path class="st5" d="M8.6,281.7C23.6,165.4,56.7,146,56.7,146c13.1-8.1,24,9.1,19.4,13.1c-13.8,11.7-39.5,66.5-41.2,125.5
		C34.2,308.5,3.5,321.3,8.6,281.7z"/>
	<polygon class="st9" points="200.3,340 200.2,334.3 200,327.6 197.7,323.4 197.7,324.1 199.1,334 198.7,342.1 	"/>
	<path class="st6" d="M68.7,59.9c-2.9-2-6.8-2-9.6,0c-5,3.5-2.6,19.4,3.2,25.3c5.9,5.8,9,4.6,9,4.6l4.4-16.9L68.7,59.9z"/>
	<path class="st10" d="M70,69.9c0,0-1.9-9.5-7.8-7.1s-3,13.8,0.9,17.4s5.3,4.4,6.9,3.4c1.6-1-2.1-6-0.8-6.9l1.3-1l1.1-3.9L70,69.9z"
		/>
	<path class="st8" d="M15,331.9c-0.5,3,4,7.1,6.1,3.3c0.7-1.3,3.8-3.6,3.8-3.6l2.5,7.9c0,0-7,6.5-11,6.7s-5.7-3.3-6.5-3.6
		s-3.6-5.5-3.6-5.5v-19.5L15,331.9z"/>
	<path class="st7" d="M138,59.9c2.8-2,6.6-2,9.4,0c4.8,3.5,2.5,19.4-3.2,25.3c-5.7,5.8-8.7,4.6-8.7,4.6l-4.3-16.9L138,59.9z"/>
	<polygon class="st9" points="4.4,340 4.6,334.3 4.8,327.6 7.1,323.4 7,324.1 5.7,334 6.1,342.1 	"/>
	<path class="st11" d="M135.9,69.9c0,0,1.9-9.5,7.8-7.1s3,13.8-0.9,17.4c-3.9,3.6-5.3,4.4-6.9,3.4c-1.6-1,2.1-6,0.8-6.9l-1.3-1
		l-1.1-3.9L135.9,69.9z"/>
	<path class="st7" d="M103.5,8.3l-32,16.5l-4.9,50.4c0,0,8.1,26,15.2,35.4s10.8,12.9,23.1,12.9c8.8,0,15.3-3.1,21.8-12.9
		c8.2-12.4,13.8-35.4,13.8-35.4l3.2-57.7L103.5,8.3z"/>
	<path class="st1" d="M103.2,79.1c6.4,2.6,9.8-0.4,10.1-3.4c0.2-2-1-3.8-2.8-4.4c-3.9-1.5-6.6-7.5-6.6-7.5l0,0
		c0.5,3.9,2.9,7.4,6.3,9.4c1.1,0.6,1.7,1.3,1.6,2.2C111.6,77,109.1,79.6,103.2,79.1L103.2,79.1z"/>
	<path class="st12" d="M74.2,96.2c0,0,10,27.4,29.6,27.2c19.6-0.2,29.3-25.4,29.3-25.4s-11,23.2-29.3,22.9S74.2,96.2,74.2,96.2z"/>
	<path class="st13" d="M90.7,90.6c0,0,15.3,3.3,29.5,0c0,0-2.5,14-14.7,14C93.9,104.6,90.9,93.3,90.7,90.6z"/>
	<path class="st14" d="M128.6,47.9l0.4-2.3c-4.9-1.2-10-1.4-15-0.8l-0.2,3.7C120.2,46.9,128.5,47.9,128.6,47.9z"/>
	<path class="st14" d="M80.5,51c5.4-2.6,15.2-3.5,15.3-3.5l-0.5-3.3C94.9,44.3,86,45,80,49L80.5,51z"/>
	<ellipse class="st1" cx="89.1" cy="58.9" rx="4.2" ry="4.4"/>
	<ellipse class="st1" cx="121.6" cy="58.9" rx="3.6" ry="4.4"/>
	<path class="st15" d="M84.7,130.6c0,0-4.5,2.9-21.3,23.5s-6.4,3.5-6.4,3.5l-3.8,36.7l19,57.3l62,1.8l20-52.3l-6.4-45.2L128,139.5
		l-7.8-7.5l-35.4-0.6"/>
	<polyline class="st3" points="100,151.9 84.7,130.6 99.3,147.8 103.6,150.7 107.4,148.8 121.5,133.2 107.1,151.9 99.9,152.4 	"/>
	<path class="st3" d="M96.5,131.2c2.3,0.6,4.6,0.9,7,0.8c3.3-0.2,7.2-0.4,7.2-0.4l-0.4,10.6H96.5V131.2z"/>
	<path class="st16" d="M96.2,133.8c2.3-1.1,4.8-1.8,7.3-1.9c2.6,0,5.2,0.6,7.5,1.9l-4.1,16.9c0,0-4.2,1-6.6,0L96.2,133.8z"/>
	<polyline class="st17" points="121.2,126.4 110.7,131.5 107.9,148.2 122.7,131.9 122.7,125.8 	"/>
	<polygon class="st18" points="100.3,150.7 90.7,186.7 102.4,199.8 113.3,186.1 106.9,150.7 	"/>
	<polyline class="st17" points="86.1,125 96.5,131.2 99.3,147.8 84.7,130.6 84.7,124.5 	"/>
	<path class="st17" d="M83.9,128.1"/>
	<path class="st3" d="M109.1,133.9l-3.7-0.7c0,0,1.8,6.1-0.2,9c-1.5,2.5-2.7,5.2-3.7,7.9h4.5L109.1,133.9z"/>
	<path class="st3" d="M84.1,124.5c0,0-1.6,15.3,2.3,26c3.9,10.8,14.9,38,14.9,38s-22.8-13.2-26.2-15c-3.4-1.8-6.1-2.8-3.5-6.3
		c2.6-3.5,5.9-9.3,5.9-9.3s-0.1-2.9-7.6-5.8v-18c0,0-0.6-1.2,3.6-3.5S84.1,124.5,84.1,124.5z"/>
	<path class="st5" d="M100.7,184.6c0,0,5.4,13.8,4.1,39.9s2.6,119.5,2.6,119.5s-13.9,4.2-55.5-8.7c0,0,4.8-32.7,4.4-58.2
		c-0.3-25.4-10.2-47.7-7.7-74.8s8.2-58,8.2-58l17.8-8.4L100.7,184.6z"/>
	<path class="st19" d="M84.8,123.5c0,0-1.6,15.3,2.3,26s14.9,38,14.9,38s-22.8-13.2-26.2-15c-3.4-1.8-6.1-2.8-3.5-6.3
		c2.6-3.5,5.9-9.2,5.9-9.2s-0.1-2.9-7.6-5.8v-18.1c0,0-0.6-1.2,3.6-3.5C78.4,127.3,84.8,123.5,84.8,123.5z"/>
	<path class="st5" d="M106.1,184.6c0,0-5.4,13.8-4.1,39.9S95.7,344,95.7,344s36.9,1.3,64-7.7c0,0-12-34.6-11.7-60
		c0.3-25.4,12.6-46.9,10.2-74S148,146,148,146l-15.8-10L106.1,184.6z"/>
	<path class="st3" d="M77.1,158.6c0,0,1.8-3,8.3-9.1l-8.3,5.7L77.1,158.6z"/>
	<path class="st3" d="M123,125.6c0,0,1.6,15.3-2.3,26s-14.9,38-14.9,38s22.8-13.2,26.2-15s6.1-2.8,3.5-6.3c-2.6-3.5-5.9-9.2-5.9-9.2
		s0.1-2.9,7.6-5.8v-18.1c0,0,0.6-1.2-3.6-3.5C129.4,129.3,123,125.6,123,125.6z"/>
	<path class="st19" d="M122.2,124.5c0,0,1.6,15.3-2.3,26c-3.9,10.8-14.9,38-14.9,38s22.8-13.2,26.2-15c3.4-1.8,6.1-2.8,3.5-6.3
		c-2.6-3.5-5.9-9.3-5.9-9.3s0.1-2.9,7.6-5.8v-18c0,0,0.6-1.2-3.6-3.5S122.2,124.5,122.2,124.5z"/>
	<path class="st3" d="M130,159.7c0,0-1.8-3-8.3-9.1l8.3,5.7V159.7z"/>
	<path class="st3" d="M103.1,193.7c0.3,1.8,3.6,89.3,2,103.1c-1.6,13.9-1.8,47.1-1.8,47.1l-4.1-0.3c0,0,2.3-39.4,2.9-51.2
		C102.5,280.6,103.1,193.7,103.1,193.7z"/>
	<circle class="st20" cx="97.5" cy="196.6" r="3.3"/>
	<circle class="st20" cx="97" cy="235" r="3.3"/>
	<circle class="st20" cx="97" cy="267.5" r="3.3"/>
	<circle class="st20" cx="96.2" cy="314.6" r="3.3"/>
	<circle class="st20" cx="75.8" cy="147.6" r="3.3"/>
	<circle class="st20" cx="132" cy="148.5" r="3.3"/>
	<polygon class="st3" points="115.7,211.9 114.6,235.3 142.6,236.2 142,211 	"/>
	<polygon class="st19" points="115,210.3 113.8,234.8 141.9,235.6 141.2,209.4 	"/>
	<polygon class="st3" points="143.7,196.6 115,195.3 113.9,211 127.2,215.6 143.5,211.9 	"/>
	<polygon class="st19" points="143,196.1 114.7,195.2 113.9,210.5 126.7,214.7 142.4,211.3 	"/>
	<circle class="st20" cx="127.5" cy="208.4" r="3.3"/>
	<polygon class="st3" points="58.5,211.9 57.4,235.3 85.4,236.2 84.8,211 	"/>
	<polygon class="st19" points="57.8,210.3 56.6,234.8 84.7,235.6 84,209.4 	"/>
	<polygon class="st3" points="86.5,196.6 57.8,195.3 56.7,211 70,215.6 86.3,211.9 	"/>
	<polygon class="st19" points="85.8,196.1 57.5,195.2 56.7,210.5 69.5,214.7 85.2,211.3 	"/>
	<circle class="st20" cx="70.3" cy="208.4" r="3.3"/>
	<g>
		<defs>
			<polygon id="SVGID_1_" points="115.2,195.1 115.3,197.8 142.7,198.2 142.7,196 			"/>
		</defs>
		<clipPath id="SVGID_2_">
			<use xlink:href="#SVGID_1_"  style="overflow:visible;"/>
		</clipPath>
		<g class="st21">
			<polygon class="st22" points="142.5,195.7 142.6,196.5 142.7,199.7 136.8,199.4 137,195.5 			"/>
			<path class="st23" d="M135.9,199.5c-0.4,0-4.9-0.1-4.9-0.1l-0.2-4.5l5.3,0.4L135.9,199.5z"/>
			<polygon class="st24" points="132.4,195.2 132.6,199.2 126.6,198.9 126.8,195 			"/>
			<polygon class="st25" points="128.5,194.6 128.7,198.6 122.7,198.3 122.9,194.4 			"/>
			<polygon class="st26" points="123.8,195.2 124,199.2 118,198.8 118.2,195 			"/>
			<polygon class="st26" points="120.2,195 120.4,199 114.5,198.7 114.7,194.8 			"/>
		</g>
	</g>
	<path class="st5" d="M49.9,153.2c0,0,2.1-9.3,9-11.1c3.7-0.9,7.3-2.1,10.8-3.6c0,0,1.8-2.5-1-1.7c-2.8,0.7-11.2,2.5-14.1,5.4
		c-2.9,2.9-5,8-6.6,11.1S49.3,154.8,49.9,153.2z"/>
	<path class="st5" d="M156.5,155.4c0,0-1.8-9.4-8.6-11.4c-3.7-1-7.3-2.3-10.7-3.9c0,0-1.7-2.5,1-1.7c2.7,0.8,11.2,2.8,13.9,5.8
		s4.8,8.1,6.3,11.3C159.7,158.6,157.1,157,156.5,155.4z"/>
	<path class="st27" d="M157.8,46c1-19.8-25.7-15.4-25.7-15.4c-7.1-9.6-2.4-17.9-2.4-17.9c-6.8-9.2-24.6-0.6-24.6-0.6
		c-21.7-10.7-39.7-3-38,7.2S60.3,37.3,54.8,31s5.8-10.4-1.4-9.4S47,34.2,47,34.2c-6.4,6.3-2.4,15.3-2.4,15.3c-6.1,6.6,0,15.5,0,15.5
		c-0.3,8.2,3.7,12,6.8,15.9S51,88.8,57.5,95s4.1,5.6,9.8,10.1s13.5,1.7,13.5,1.7C67.6,89.4,72,74.5,72,74.5
		c8.2-12.5,2.8-26.1,2.8-28.2c0-15.4,8.5-20.2,15.2-18.1c6.8,2.1,9.5,2.8,9.5,2.8c8.1-0.4,16-2.5,23.2-6.2c0,0,12.3,24,13.7,29.8
		c0.1,0.5,0.3,1.1,0.5,1.6l0,0c1.3-1.1,2.5,0,3.7,1.7c0.1-0.1,0.2-0.1,0.3-0.2c0,0.5,0,1,0,1.5c0-0.2,0-0.5,0-0.7
		c0.9,1.6,1.8,3.2,2.8,4.7c1.7,1.6,2.9,3.6,3.6,5.7c0.2,0.6,0.4,1.1,0.7,1.6l-0.2,0.2c0.4-0.3,0.8-0.6,1.2-0.9
		C160.9,61.7,157.8,46,157.8,46z"/>
	<path class="st14" d="M132.1,43.8c0,0,4.2,8.1,11.1,9.9c6.9,1.7,12.9,10.7,2.3,19.3s4.7,15.1,9.2,4.4c4.5-10.8,4.5,14.7-13.7,9
		c-5.2-1.6-5.8-9-0.2-15.1c4.8-5.3,4.3-7.5-1-11.5C135,55.7,132.2,49.9,132.1,43.8z"/>
	<path class="st1" d="M122.8,24.8c0,0,8.4,11.7,18.2,13.5c9.8,1.8,20.1,13.3,15.2,22.8c0,0,1.9-11.2-10.7-17.3
		S124.9,32.2,122.8,24.8z"/>
	<path class="st1" d="M77.9,32c0,0-23,23.4-30.9,2.2c0,0-3.4,10,4,12.5C58.4,49.2,70.9,40.9,77.9,32z"/>
	<path class="st28" d="M44.2,64.1c0,0,12.8,22.1,31.1,3.7c0,0-1.2,7-6.4,8.7C68.8,76.6,51.6,84.8,44.2,64.1z"/>
	<path class="st1" d="M122.8,33c2.4,1.7,4.4,4,5.8,6.5c0.2-4.3-3.6-16.9-7.9-16.7c-5.5,0.3-10.1,1.5-15.7,0.2
		c-6.5-1.6-13.7-5.3-20.5-4.9c-8.1,0.5-12.2,8.6-15.4,15c-2.8,5.6-1.9,11.7-3.7,17.6c-1.7,5.4-6.3,11.4-5,17.1
		c1.2,5.1,8.3,9.4,4.9,15.2c-3.1,5.3-8.7,2.3-12.7-0.2c1,3.3-0.3,7,5,12.1c6.4,6.2,4.1,5.6,9.8,10.1s13.5,1.7,13.5,1.7
		c-13.2-17.5-8.8-32.3-8.8-32.3c8.1-12.5,2-19.9,2-22c0-15.4,7.4-19.6,14.2-17.5c3.9,1.1,7.7,2.6,11.3,4.2
		C107.6,38.8,115.6,36.7,122.8,33z"/>
	<path class="st14" d="M122.8,33c0,0,4.4-24-24.7-24.7c-14.2-0.3-18.5,7.3-19.9,17c-1.4,9.7-1.3,13.8-11.5,19.4s-10.8,19.5-2.4,22.1
		c1.7,0.5-8.5,2.1-2.3-3.7c0,0-6.1-5.5-8.1,3.7c-2,9.2,4.4,12.6,11.9,11.1s13.9-6.4,8.8-16.5s-2-16.2,3.4-21.3s2-20.7,14.9-21.1
		c12.9-0.3,13.9,15.2,6.8,20.1c0,0,9.7,0.1,15.3-1.7C117.7,36.5,122.8,33,122.8,33z"/>
	<path class="st29" d="M63.6,35.5l1.6,1.5l43.2,4.2l39.4-0.8l4.1-14.7c0,0-14.3-9.7-44.1-11.4s-45.4,6.2-45.4,6.2L63.6,35.5z"/>
	<path class="st30" d="M64.5,23.6c14,3.3,28.3,5.4,42.7,6.3c23.6,1.3,43.4-2.2,41.5-2.2l3.1-2.1c0.3-4.2,0.3-8.4,0-12.6
		c-0.8-8.5-3.5-9.9-44.2-12.1C68.1-1.2,66.3,0.3,65.5,7.2c-0.6,4.5-1.5,9-2.8,13.4L64.5,23.6z"/>
	<path class="st31" d="M65.5,35.5c0,0,13.7,5.7,37.9,7.6c14.5,1.1,29.1,0.2,43.3-2.8c0,0-16.7-0.1-43.6-1.1
		C78.8,38.3,65.5,35.5,65.5,35.5z"/>
	<path class="st32" d="M91.7,28.7c0,0,4.5-2.4,6.2-8.9s6.7-6.9,8.9-6.8c2.1,0.1-0.9,20-0.9,20L91.7,28.7z"/>
	<path class="st32" d="M121.1,30.4c0,0-4.2-2.9-5.2-9.6c-1-6.7-5.9-7.6-8.1-7.8s-1.4,20-1.4,20L121.1,30.4z"/>
	
		<ellipse transform="matrix(5.634434e-02 -0.9984 0.9984 5.634434e-02 76.958 128.7028)" class="st33" cx="106.6" cy="23.6" rx="9.4" ry="7.9"/>
	<path class="st34" d="M62.6,20.5c0,0,5.3-8.9,34.4-10.1c-6.1,1.3-12.2,3-18.1,5c0,0,5.8-0.2,11.5-0.6l-0.2,3.5
		c0,0-9.3,0.3-13.6,1.4c-4.3,1.1,7.7,2.7,11.8,3.1c0,0,0.5,2.7,4.2,3.5l2.2,2.6c0,0-15.7-2-29-5l-1.3-0.3L62.6,20.5z"/>
	<path class="st34" d="M151.8,25.7c0,0-6.2-11.7-31.6-13.9c7.2,2.5,14.1,5.7,20.7,9.4c0,0-17.6-0.9-21.2-1.2l8.8,5.4
		c0,0,10.8,4,15.4,3.7C146.9,28.9,149.7,27.6,151.8,25.7z"/>
	<path class="st30" d="M63.5,35.5c0,0-10.5-9.1,39.1-6.4c54.8,3,45.1,11.2,45.1,11.2c-14.6,2.9-29.5,3.8-44.3,2.8
		C79.3,41.6,63.5,35.5,63.5,35.5z"/>
	<path class="st3" d="M143,183.2c0,0,19.9,24.2,13.5,45.7c-6.4,21.5-9.7,45.7-8,56.7c1.7,11,2,22.2,9.3,45.6c0,0-22.6,5.7-43.3,5.3
		l0.5-5.2l17-13.7c0,0-12.4,5.2-20,5.3l1.8-26.2l25.6-17.8l2.5-23.1c0,0-11.7,5.3-28.6,4.4l-1.2-6.5c0,0,32.5-5.7,36.7-17.5
		c0,0,4.8-16,2.3-26.7C148.5,198.7,143,183.2,143,183.2z"/>
	<path class="st3" d="M148.5,147.8c0,0,19.3,18,27.5,44.2s18.6,68.9,20.6,94.7c2.1,25.8-17.5,13.7-17.5,13.7s16.1,3.7,14.7-15.8
		c0,0-3.3,4.2-13.2,5.3c0,0-1.8-26.3-4.4-36.2c-2.6-9.8,13.1-21.7-2.4-59.9S148.5,147.8,148.5,147.8z"/>
	<path class="st3" d="M56.3,147.8c0,0-19.3,18-27.5,44.2s-18.6,68.9-20.6,94.7c-2.1,25.8,17.5,13.7,17.5,13.7s-16.1,3.7-14.7-15.8
		c0,0,3.3,4.2,13.2,5.3c0,0,1.8-26.3,4.4-36.2s-13.1-21.7,2.4-59.9S56.3,147.8,56.3,147.8z"/>
</g>
</svg>
